<?xml version="1.0" encoding="UTF-8"?> <svg xmlns="http://www.w3.org/2000/svg" width="51" height="51" viewBox="0 0 51 51" fill="none"> <path d="M25.5 51C39.5833 51 51 39.5833 51 25.5C51 11.4167 39.5833 0 25.5 0C11.4167 0 0 11.4167 0 25.5C0 39.5833 11.4167 51 25.5 51Z" fill="#0095DA"></path> <path d="M7.58409 25.8056L15.2038 28.6496L18.1531 38.1345C18.3418 38.742 19.0847 38.9665 19.5777 38.5634L23.8251 35.1008C24.2703 34.7381 24.9045 34.72 25.3697 35.0578L33.0305 40.6196C33.5579 41.003 34.3052 40.714 34.4374 40.0766L40.0493 13.0824C40.1937 12.3862 39.5096 11.8054 38.8467 12.0618L7.57516 24.1254C6.80345 24.423 6.81017 25.5156 7.58409 25.8056ZM17.6778 27.1357L32.5696 17.9638C32.8372 17.7994 33.1126 18.1613 32.8828 18.3745L20.5927 29.7987C20.1607 30.2008 19.8821 30.739 19.8031 31.3231L19.3845 34.4256C19.329 34.8398 18.7471 34.8809 18.6328 34.48L17.0227 28.8225C16.8383 28.1772 17.107 27.488 17.6778 27.1357Z" fill="white"></path> </svg> 