<?xml version="1.0" encoding="UTF-8"?> <svg xmlns="http://www.w3.org/2000/svg" width="32" height="32" viewBox="0 0 32 32" fill="none"> <path d="M16 32C24.8366 32 32 24.8366 32 16C32 7.16344 24.8366 0 16 0C7.16344 0 0 7.16344 0 16C0 24.8366 7.16344 32 16 32Z" fill="#0095DA"></path> <path d="M16 25C20.9706 25 25 20.9706 25 16C25 11.0294 20.9706 7 16 7C11.0294 7 7 11.0294 7 16C7 20.9706 11.0294 25 16 25Z" fill="white"></path> <path d="M24.9508 12.292C24.9086 11.3356 24.7539 10.6781 24.5324 10.1084C24.3038 9.50359 23.9522 8.96213 23.4915 8.51201C23.0414 8.05489 22.4963 7.69969 21.8986 7.4747C21.3255 7.25315 20.6714 7.09848 19.715 7.05632C18.7515 7.01058 18.4456 7 16.0018 7C13.5579 7 13.252 7.01058 12.292 7.05274C11.3356 7.09491 10.6781 7.24971 10.1085 7.47113C9.50358 7.69969 8.96213 8.05132 8.51201 8.51201C8.05489 8.96213 7.69983 9.50716 7.4747 10.1049C7.25315 10.6781 7.09848 11.3321 7.05632 12.2885C7.01058 13.252 7 13.5579 7 16.0018C7 18.4456 7.01058 18.7515 7.05274 19.7115C7.09491 20.6679 7.24971 21.3254 7.47127 21.8951C7.69983 22.4999 8.05489 23.0414 8.51201 23.4915C8.96213 23.9486 9.50716 24.3038 10.1049 24.5288C10.6781 24.7504 11.3321 24.905 12.2886 24.9472C13.2485 24.9895 13.5545 24.9999 15.9983 24.9999C18.4422 24.9999 18.748 24.9895 19.708 24.9472C20.6644 24.905 21.322 24.7504 21.8916 24.5288C23.1013 24.0611 24.0577 23.1047 24.5254 21.8951C24.7468 21.322 24.9016 20.6679 24.9438 19.7115C24.9859 18.7515 24.9965 18.4456 24.9965 16.0018C24.9965 13.5579 24.9929 13.252 24.9508 12.292ZM23.3298 19.6411C23.2911 20.5202 23.1434 20.9949 23.0204 21.3114C22.7179 22.0956 22.0955 22.7179 21.3114 23.0204C20.9949 23.1434 20.5168 23.2911 19.6411 23.3297C18.6917 23.372 18.407 23.3824 16.0053 23.3824C13.6037 23.3824 13.3153 23.372 12.3694 23.3297C11.4903 23.2911 11.0156 23.1434 10.6991 23.0204C10.3089 22.8761 9.9537 22.6476 9.66539 22.3487C9.3665 22.0568 9.13794 21.7052 8.99372 21.315C8.87065 20.9985 8.72299 20.5202 8.68439 19.6447C8.64209 18.6953 8.63165 18.4104 8.63165 16.0088C8.63165 13.6071 8.64209 13.3188 8.68439 12.373C8.72299 11.4939 8.87065 11.0192 8.99372 10.7027C9.13794 10.3123 9.3665 9.95727 9.66896 9.66883C9.96071 9.36994 10.3123 9.14138 10.7027 8.99729C11.0192 8.87422 11.4974 8.72656 12.3729 8.68783C13.3224 8.64566 13.6072 8.63508 16.0088 8.63508C18.414 8.63508 18.6987 8.64566 19.6447 8.68783C20.5238 8.72656 20.9985 8.87422 21.315 8.99729C21.7052 9.14138 22.0604 9.36994 22.3487 9.66883C22.6476 9.96071 22.8761 10.3123 23.0204 10.7027C23.1434 11.0192 23.2911 11.4973 23.3298 12.373C23.372 13.3224 23.3826 13.6071 23.3826 16.0088C23.3826 18.4104 23.372 18.6917 23.3298 19.6411Z" fill="white"></path> <path d="M16 11C13.2396 11 11 13.2395 11 16C11 18.7605 13.2396 21 16 21C18.7605 21 21 18.7605 21 16C21 13.2395 18.7605 11 16 11ZM16 19.2434C14.2092 19.2434 12.7566 17.7909 12.7566 16C12.7566 14.2091 14.2092 12.7566 16 12.7566C17.7909 12.7566 19.2434 14.2091 19.2434 16C19.2434 17.7909 17.7909 19.2434 16 19.2434Z" fill="#0095DA"></path> <path d="M23.0875 10.5438C23.0875 11.2582 22.5082 11.8375 21.7937 11.8375C21.0793 11.8375 20.5 11.2582 20.5 10.5438C20.5 9.82913 21.0793 9.25 21.7937 9.25C22.5082 9.25 23.0875 9.82913 23.0875 10.5438Z" fill="#0095DA"></path> </svg> 