<?xml version="1.0" encoding="UTF-8"?> <svg xmlns="http://www.w3.org/2000/svg" width="51" height="51" viewBox="0 0 51 51" fill="none"> <path d="M25.5 51C39.5833 51 51 39.5833 51 25.5C51 11.4167 39.5833 0 25.5 0C11.4167 0 0 11.4167 0 25.5C0 39.5833 11.4167 51 25.5 51Z" fill="#0095DA"></path> <path fill-rule="evenodd" clip-rule="evenodd" d="M36.6294 14.8806C33.8092 12.0571 30.0586 10.5017 26.0628 10.5C17.8294 10.5 11.1286 17.2004 11.1253 25.4362C11.1243 28.0688 11.8119 30.6384 13.1191 32.904L11 40.6444L18.9186 38.5671C21.1004 39.7571 23.5568 40.3844 26.0568 40.3851H26.0628C26.0631 40.3851 26.0625 40.3851 26.0628 40.3851C34.2952 40.3851 40.9967 33.684 41 25.4479C41.0017 21.4568 39.4496 17.7042 36.6294 14.8806ZM19.9968 25.9798C19.8102 25.7306 18.4728 23.9561 18.4728 22.119C18.4728 20.2818 19.4371 19.3789 19.779 19.0054C20.121 18.6319 20.5256 18.5385 20.7745 18.5385C21.0233 18.5385 21.2725 18.5408 21.4899 18.5516C21.719 18.5633 22.0268 18.4645 22.3296 19.1923C22.6407 19.9395 23.387 21.777 23.4804 21.9636C23.5739 22.1505 23.6358 22.3682 23.5116 22.6174C23.3873 22.8662 23.325 23.022 23.1385 23.24C22.9519 23.4581 22.7466 23.7267 22.5784 23.8938C22.3916 24.08 22.197 24.282 22.4147 24.6555C22.6324 25.0292 23.3813 26.2514 24.4909 27.2412C25.9164 28.5129 27.1192 28.9068 27.4923 29.0937C27.8654 29.2806 28.0831 29.2495 28.3009 29.0003C28.5186 28.7511 29.234 27.9104 29.4828 27.5369C29.7317 27.1635 29.9806 27.2258 30.3225 27.35C30.6648 27.4746 32.4996 28.3776 32.8727 28.5642C33.2459 28.7511 33.4947 28.8445 33.5882 29.0003C33.6816 29.156 33.6816 29.9033 33.3705 30.7751C33.0593 31.6469 31.5682 32.4427 30.8511 32.5496C30.208 32.6457 29.3944 32.6859 28.5001 32.4016C27.9582 32.2297 27.2629 32 26.3723 31.6155C22.6287 29.9987 20.1836 26.229 19.9968 25.9798Z" fill="white"></path> </svg> 